<?xml version="1.0" encoding="utf-8"?>
<!-- Generator: Adobe Illustrator 16.0.0, SVG Export Plug-In . SVG Version: 6.00 Build 0)  -->
<!DOCTYPE svg PUBLIC "-//W3C//DTD SVG 1.1//EN" "http://www.w3.org/Graphics/SVG/1.1/DTD/svg11.dtd">
<svg version="1.1" id="weather-icon-chancesnow" xmlns="http://www.w3.org/2000/svg" xmlns:xlink="http://www.w3.org/1999/xlink"
	 x="0px" y="0px" width="612px" height="792px" viewBox="0 0 612 792" enable-background="new 0 0 612 792" xml:space="preserve">
<g id="chancesnow">
	<path fill="#FFFFFF" d="M486.731,325.237c0.956-7.65,1.912-15.3,1.912-22.95c0-70.763-57.375-128.138-128.138-128.138
		c-43.031,0-83.193,21.994-107.1,57.375c-11.475-4.781-22.95-7.65-35.381-7.65c-48.769,0-88.931,40.163-88.931,88.931v2.869
		c-39.206,12.432-66.938,49.725-66.938,92.757c0,53.55,43.987,97.537,97.538,97.537h47.813c15.3,0,14.344-24.862,0-24.862h-47.813
		c-40.163,0-71.719-32.513-71.719-71.719c0-34.425,23.906-64.069,58.331-70.763l12.431-2.869l-1.912-12.431
		c-0.957-3.825-0.957-6.694-0.957-10.519c0-34.425,28.688-63.112,63.113-63.112c11.475,0,22.95,2.869,33.469,9.563l11.475,6.694
		l6.694-11.475c18.169-33.469,52.594-54.506,90.844-54.506c56.418,0,102.318,45.9,102.318,102.319
		c0,10.519-1.912,21.038-4.781,31.556l-5.737,18.169l20.081-0.957h2.869c36.337,0,65.024,29.644,65.024,65.025
		c0,36.338-29.644,65.025-65.024,65.025h-54.507c-16.256,0-19.125,24.862,0,24.862h54.507c49.725,0,90.844-41.119,90.844-90.844
		C566.1,369.225,530.719,330.975,486.731,325.237z"/>
	<path fill="#00FFFF" d="M403.537,533.7h-48.769c-0.956-3.825-2.868-7.65-4.781-11.476l21.994-21.993
		c3.825-3.825,3.825-10.519,0-14.344s-10.519-3.825-14.344,0l-21.994,21.993c-3.825-1.912-7.649-3.824-11.475-4.781v-48.769
		c0-5.737-4.781-10.519-10.519-10.519c-5.738,0-10.519,4.781-10.519,10.519V503.1c-3.825,0.957-7.65,2.869-11.475,4.781
		l-21.038-21.037c-3.825-3.825-10.519-3.825-14.344,0c-3.825,3.825-3.825,10.519,0,14.344l21.038,21.037
		c-1.913,3.825-3.825,7.65-4.781,11.476h-48.769c-5.738,0-10.519,4.781-10.519,10.519s4.781,10.519,10.519,10.519h48.769
		c0.956,3.825,2.869,7.65,4.781,11.476l-21.994,21.993c-3.825,3.825-3.825,10.519,0,14.344c1.913,1.913,4.781,2.869,7.65,2.869
		s4.781-0.956,7.65-2.869l21.994-21.993c3.825,1.912,7.65,3.824,11.475,4.781v48.769c0,5.737,4.782,10.519,10.519,10.519
		s10.519-4.781,10.519-10.519v-48.769c3.825-0.957,7.65-2.869,11.475-4.781l21.038,21.037c1.912,1.912,4.781,2.869,7.649,2.869
		c2.869,0,5.738-0.957,7.65-2.869c3.825-3.825,3.825-10.519,0-14.344L351.9,566.213c1.912-3.825,3.824-7.65,4.781-11.476h48.769
		c5.737,0,10.519-4.781,10.519-10.519C414.057,538.481,409.275,533.7,403.537,533.7L403.537,533.7z M314.606,560.475
		c-8.606,0-16.256-7.649-16.256-16.256s7.65-16.256,16.256-16.256s16.256,7.649,16.256,16.256
		C330.862,553.781,323.213,560.475,314.606,560.475z"/>
</g>
</svg>
