<?xml version="1.0" encoding="utf-8"?>
<!-- Generator: Adobe Illustrator 16.0.0, SVG Export Plug-In . SVG Version: 6.00 Build 0)  -->
<!DOCTYPE svg PUBLIC "-//W3C//DTD SVG 1.0//EN" "http://www.w3.org/TR/2001/REC-SVG-20010904/DTD/svg10.dtd">
<svg version="1.0" id="weather-icon-chanceflurries"
	 xmlns="http://www.w3.org/2000/svg" xmlns:xlink="http://www.w3.org/1999/xlink" x="0px" y="0px" width="612px" height="792px"
	 viewBox="0 0 612 792" enable-background="new 0 0 612 792" xml:space="preserve">
<g id="chanceflurries">
	<path fill="#FFFFFF" d="M487.688,300.375c0.956-7.65,1.912-15.3,1.912-22.95c0-70.762-57.375-128.137-128.137-128.137
		c-43.988,0-83.194,21.994-107.101,57.375c-11.475-4.781-22.95-7.65-35.381-7.65c-48.769,0-88.932,40.162-88.932,88.931v2.869
		c-39.206,13.388-66.938,50.681-66.938,92.756c0,53.55,43.988,97.54,97.538,97.54h47.813c15.3,0,14.344-25.819,0-25.819H160.65
		c-40.163,0-72.675-32.512-72.675-72.675c0-34.425,24.862-64.068,58.331-70.762l12.431-1.913l-1.912-12.431
		c-0.957-3.825-0.957-7.65-0.957-10.519c0-35.381,28.688-63.112,63.113-63.112c11.475,0,22.95,2.869,33.469,9.563l11.475,6.694
		l6.694-12.431c18.169-33.469,52.594-55.463,90.844-55.463c56.418,0,103.274,45.9,103.274,103.275
		c0,10.519-1.912,21.037-4.781,31.556l-5.737,18.168l20.081-0.956h2.869c36.337,0,65.981,29.644,65.981,65.981
		c0,36.335-29.646,65.981-65.981,65.981h-55.463c-16.256,0-19.125,25.817,0,25.817h55.463c49.725,0,90.844-41.118,90.844-90.845
		C568.013,344.362,532.631,306.112,487.688,300.375z"/>
	<path fill="#00FFFF" d="M391.106,561.432c6.691-8.604,4.779-21.038-3.825-27.729c-8.606-6.694-21.037-4.781-27.731,3.825
		c-5.737,8.604-4.781,21.036,3.825,27.729C371.981,571.95,384.412,570.037,391.106,561.432z M269.663,561.432
		c6.694-8.604,4.781-21.038-3.825-27.729c-8.606-6.694-21.038-4.781-27.731,3.825c-6.694,8.604-4.781,21.036,3.825,27.729
		C250.538,571.95,262.969,570.037,269.663,561.432z"/>
	<ellipse fill="#00FFFF" cx="314.644" cy="633.169" rx="20.081" ry="20.081"/>
	<ellipse fill="#00FFFF" cx="314.606" cy="465.844" rx="20.081" ry="20.081"/>
</g>
</svg>
