<?xml version="1.0" encoding="utf-8"?>
<!-- Generator: Adobe Illustrator 16.0.0, SVG Export Plug-In . SVG Version: 6.00 Build 0)  -->
<!DOCTYPE svg PUBLIC "-//W3C//DTD SVG 1.1//EN" "http://www.w3.org/Graphics/SVG/1.1/DTD/svg11.dtd">
<svg version="1.1" id="weather-icon-chancetstorms" xmlns="http://www.w3.org/2000/svg" xmlns:xlink="http://www.w3.org/1999/xlink"
	 x="0px" y="0px" width="612px" height="792px" viewBox="0 0 612 792" enable-background="new 0 0 612 792" xml:space="preserve">
<g id="chancetstorms">
	<path fill="#FFFFFF" d="M486.731,304.2c0.956-7.65,1.912-15.3,1.912-22.95c0-70.763-57.375-128.138-128.138-128.138
		c-43.031,0-83.193,21.994-107.1,57.375c-11.475-4.781-22.95-7.65-34.425-7.65c-48.769,0-88.932,40.163-88.932,88.931v2.869
		c-39.206,13.387-66.938,49.725-66.938,92.756c0,53.55,43.988,97.538,97.538,97.538h47.813c15.3,0,14.344-25.819,0-25.819H160.65
		c-40.163,0-71.719-32.513-71.719-71.719c0-34.425,23.906-64.068,58.332-70.762l12.431-2.869l-1.913-12.432
		c-0.956-3.825-0.956-6.693-0.956-10.519c0-34.425,28.688-63.112,63.112-63.112c11.475,0,22.95,2.869,33.469,9.563l11.475,6.693
		l6.694-12.431c18.168-33.469,52.594-54.506,90.844-54.506c56.419,0,102.318,45.9,102.318,102.319
		c0,10.519-1.912,21.038-4.781,31.556l-5.737,18.169l20.081-0.956h2.869c36.337,0,65.024,29.644,65.024,65.025
		c0,36.337-29.644,65.025-65.024,65.025h-54.507c-16.256,0-19.125,25.818,0,25.818h54.507c49.725,0,90.844-41.118,90.844-90.843
		C566.1,348.188,530.719,309.938,486.731,304.2L486.731,304.2z"/>
	<path fill="#FF8C00" d="M260.1,656.1c-1.913,0-4.781-0.956-6.694-1.912c-5.737-3.825-7.65-11.475-3.825-17.213l75.544-125.269
		h-79.369l88.931-126.225c3.825-5.738,11.475-6.694,17.213-2.869c5.737,3.825,6.693,12.432,2.868,18.169l-61.2,87.019h75.543
		l-97.537,162.563C268.706,654.188,264.881,656.1,260.1,656.1L260.1,656.1z"/>
</g>
</svg>
