<?xml version="1.0" encoding="utf-8"?>
<!-- Generator: Adobe Illustrator 16.0.0, SVG Export Plug-In . SVG Version: 6.00 Build 0)  -->
<!DOCTYPE svg PUBLIC "-//W3C//DTD SVG 1.1//EN" "http://www.w3.org/Graphics/SVG/1.1/DTD/svg11.dtd">
<svg version="1.1" id="weather-icon-chancesleet" xmlns="http://www.w3.org/2000/svg" xmlns:xlink="http://www.w3.org/1999/xlink"
	 x="0px" y="0px" width="612px" height="792px" viewBox="0 0 612 792" enable-background="new 0 0 612 792" xml:space="preserve">
<g id="chancesleet">
	<path fill="#FFFFFF" d="M486.731,317.587c0.956-7.65,1.912-15.3,1.912-22.95c0-70.763-57.375-128.138-128.138-128.138
		c-43.031,0-83.193,21.994-107.1,57.375c-11.475-4.781-22.95-7.65-35.381-7.65c-48.769,0-88.931,40.163-88.931,88.931v2.869
		c-39.206,13.388-66.938,49.725-66.938,92.756c0,53.55,43.987,97.537,97.538,97.537h47.813c15.3,0,14.344-24.862,0-24.862h-47.813
		c-40.163,0-71.719-32.513-71.719-71.719c0-34.425,23.906-64.068,58.331-70.762l12.431-2.869l-1.912-12.432
		c-0.957-3.825-0.957-7.65-0.957-10.519c0-34.425,28.688-63.112,63.113-63.112c11.475,0,22.95,2.869,33.469,9.563l11.475,6.693
		l6.694-12.431c18.169-33.469,52.594-54.506,90.844-54.506c56.418,0,102.318,45.9,102.318,102.319
		c0,10.519-1.912,21.038-4.781,31.556l-5.737,18.169l20.081-0.956h2.869c36.337,0,65.024,29.644,65.024,65.024
		c0,36.338-29.644,65.025-65.024,65.025h-54.507c-16.256,0-19.125,24.862,0,24.862h54.507c49.725,0,90.844-41.118,90.844-90.844
		C566.1,361.575,530.719,323.325,486.731,317.587L486.731,317.587z"/>
	<path fill="#00FFFF" d="M254.362,529.875c-1.912,0-2.869,0-4.781-0.956c-4.781-2.869-6.693-8.606-4.781-13.388l33.469-63.112
		c2.869-4.781,8.606-6.694,13.388-4.781c4.781,2.868,6.694,8.606,4.781,13.388l-33.469,63.112
		C262.013,527.963,258.188,529.875,254.362,529.875z M298.35,596.813c-1.913,0-2.869,0-4.781-0.956
		c-4.781-2.869-6.694-8.606-4.781-13.388l65.981-131.006c2.869-4.781,8.606-6.694,13.388-4.781
		c4.781,2.868,6.693,8.605,4.781,13.387l-65.981,131.007C306,594.9,302.175,596.813,298.35,596.813L298.35,596.813z
		 M249.581,573.862l-26.775,9.563L214.2,556.65l26.775-8.606L249.581,573.862z M259.335,622.153l26.297-8.769l8.778,26.297
		l-26.297,8.797L259.335,622.153z"/>
</g>
</svg>
