<?xml version="1.0" encoding="utf-8"?>
<!-- Generator: Adobe Illustrator 16.0.0, SVG Export Plug-In . SVG Version: 6.00 Build 0)  -->
<!DOCTYPE svg PUBLIC "-//W3C//DTD SVG 1.1//EN" "http://www.w3.org/Graphics/SVG/1.1/DTD/svg11.dtd">
<svg version="1.1" id="weather-icon-chancerain" xmlns="http://www.w3.org/2000/svg" xmlns:xlink="http://www.w3.org/1999/xlink"
	 x="0px" y="0px" width="612px" height="792px" viewBox="0 0 612 792" enable-background="new 0 0 612 792" xml:space="preserve">
<g id="chancerain">
	<path fill="#FFFFFF" d="M486.731,320.456c0.956-7.65,1.912-15.3,1.912-22.95c0-70.763-57.375-128.138-128.138-128.138
		c-43.031,0-83.193,21.994-107.1,57.375c-11.475-4.781-22.95-7.65-35.381-7.65c-48.769,0-88.931,39.206-88.931,88.931v2.869
		c-39.206,13.388-66.938,49.725-66.938,92.757c0,53.55,43.987,97.537,97.538,97.537h47.813c15.3,0,14.344-25.818,0-25.818h-47.813
		c-40.163,0-71.719-32.513-71.719-71.719c0-34.425,23.906-64.069,58.331-70.763l12.431-2.869l-1.912-12.431
		c-0.957-3.825-0.957-6.694-0.957-10.519c0-34.425,28.688-63.113,63.113-63.113c11.475,0,22.95,2.869,33.469,9.563l11.475,6.694
		l6.694-12.431c18.169-33.469,52.594-54.506,90.844-54.506c56.418,0,102.318,45.9,102.318,102.319
		c0,10.519-1.912,21.038-4.781,31.556l-5.737,18.169l20.081-0.957h2.869c36.337,0,65.024,29.644,65.024,65.025
		c0,36.337-29.644,65.024-65.024,65.024h-54.507c-16.256,0-19.125,25.819,0,25.819h54.507c49.725,0,90.844-41.119,90.844-90.844
		C566.1,364.444,530.719,326.194,486.731,320.456L486.731,320.456z"/>
	<path fill="#1754FF" d="M238.106,534.656c-2.869,0-4.781-0.956-7.65-1.912c-5.737-3.825-6.693-12.432-2.869-17.213l22.95-33.469
		c3.825-5.737,11.475-6.693,17.212-2.869c5.737,3.825,6.694,11.476,2.869,17.213l-22.95,33.469
		C245.756,532.744,241.931,534.656,238.106,534.656z M293.569,534.656c-2.869,0-4.781-0.956-7.65-1.912
		c-5.738-3.825-6.694-12.432-2.869-17.213L306,482.063c3.825-5.737,12.432-6.693,17.213-2.869
		c5.737,3.825,6.693,11.476,2.868,17.213l-22.95,33.469C301.219,532.744,297.394,534.656,293.569,534.656z M349.031,534.656
		c-2.869,0-4.781-0.956-7.65-1.912c-5.737-3.825-6.693-12.432-2.868-17.213l22.95-33.469c3.824-5.737,12.431-6.693,17.212-2.869
		c5.737,3.825,6.694,11.476,2.869,17.213l-22.95,33.469C357.638,532.744,353.813,534.656,349.031,534.656z M177.862,625.5
		c-2.869,0-4.781-0.956-7.65-1.912c-5.737-3.825-6.694-11.476-2.869-17.213l22.95-33.469c3.825-5.737,12.431-6.693,18.168-2.869
		c5.738,3.825,6.694,11.476,2.869,17.213l-22.95,33.469C185.513,623.588,181.688,625.5,177.862,625.5z M234.281,625.5
		c-2.869,0-4.781-0.956-7.65-1.912c-5.738-3.825-6.694-11.476-2.869-17.213l22.95-33.469c3.825-5.737,11.475-6.693,17.212-2.869
		c5.738,3.825,6.694,11.476,2.869,17.213l-22.95,33.469C241.931,623.588,238.106,625.5,234.281,625.5z M289.744,625.5
		c-2.869,0-4.781-0.956-7.65-1.912c-5.737-3.825-6.694-11.476-2.869-17.213l22.95-33.469c3.825-5.737,11.476-6.693,17.213-2.869
		c5.737,3.825,6.693,11.476,2.868,17.213l-22.95,33.469C297.394,623.588,293.569,625.5,289.744,625.5L289.744,625.5z"/>
</g>
</svg>
