<?xml version="1.0" encoding="utf-8"?>
<!-- Generator: Adobe Illustrator 16.0.0, SVG Export Plug-In . SVG Version: 6.00 Build 0)  -->
<!DOCTYPE svg PUBLIC "-//W3C//DTD SVG 1.1//EN" "http://www.w3.org/Graphics/SVG/1.1/DTD/svg11.dtd">
<svg version="1.1" id="weather-icon-clear" xmlns="http://www.w3.org/2000/svg" xmlns:xlink="http://www.w3.org/1999/xlink" x="0px"
	 y="0px" width="612px" height="792px" viewBox="0 0 612 792" enable-background="new 0 0 612 792" xml:space="preserve">
<g id="clear">
	<path fill="#FF8C00" d="M314.606,273.6c-6.694,0-12.432-5.738-12.432-12.431v-43.988c0-6.694,5.737-12.431,12.432-12.431
		c6.693,0,12.431,5.737,12.431,12.431v43.988C327.037,267.862,321.3,273.6,314.606,273.6z M314.606,604.463
		c-6.694,0-12.432-5.738-12.432-12.432v-43.987c0-6.694,5.737-12.432,12.432-12.432c6.693,0,12.431,5.737,12.431,12.432v43.987
		C327.037,598.725,321.3,604.463,314.606,604.463z M171.169,417.037h-43.988c-6.694,0-12.431-5.737-12.431-12.431
		c0-6.694,5.737-12.432,12.431-12.432h43.988c6.693,0,12.431,5.737,12.431,12.432C183.6,411.3,177.862,417.037,171.169,417.037z
		 M502.031,417.037h-43.987c-6.694,0-12.432-5.737-12.432-12.431c0-6.694,5.737-12.432,12.432-12.432h43.987
		c6.693,0,12.432,5.737,12.432,12.432C514.463,411.3,508.725,417.037,502.031,417.037z M420.75,314.719
		c-2.869,0-6.693-0.956-8.606-3.825c-4.781-4.781-4.781-13.387,0-18.168l30.601-30.6c4.781-4.781,13.387-4.781,18.168,0
		s4.781,13.388,0,18.169l-30.6,30.6C427.443,313.763,423.619,314.719,420.75,314.719z M182.644,552.825
		c-2.869,0-6.693-0.956-8.606-3.825c-4.781-4.781-4.781-13.388,0-18.169l30.6-30.6c4.781-4.781,13.387-4.781,18.168,0
		s4.781,13.388,0,18.169L191.25,549C189.337,551.869,185.513,552.825,182.644,552.825z M451.35,550.912
		c-2.868,0-6.693-0.956-8.605-3.824l-30.601-30.601c-4.781-4.781-4.781-13.388,0-18.169s13.388-4.781,18.169,0l30.6,30.601
		c4.781,4.781,4.781,13.388,0,18.169C458.044,549.956,455.175,550.912,451.35,550.912z M213.244,316.631
		c-2.869,0-6.694-0.957-8.606-3.825l-30.6-30.6c-4.781-4.781-4.781-13.387,0-18.168s13.387-4.781,18.168,0l30.6,30.6
		c4.781,4.781,4.781,13.387,0,18.168C219.938,315.675,217.069,316.631,213.244,316.631z M314.606,324.281
		c43.987,0,80.325,36.337,80.325,80.325c0,43.987-36.338,80.325-80.325,80.325c-43.988,0-80.325-36.338-80.325-80.325
		C234.281,360.619,270.619,324.281,314.606,324.281 M314.606,298.462c-58.332,0-106.144,47.813-106.144,106.144
		c0,58.331,47.813,106.144,106.144,106.144c58.331,0,106.144-47.813,106.144-106.144
		C420.75,346.275,372.938,298.462,314.606,298.462z"/>
</g>
</svg>
