<?xml version="1.0" encoding="utf-8"?>
<!-- Generator: Adobe Illustrator 16.0.0, SVG Export Plug-In . SVG Version: 6.00 Build 0)  -->
<!DOCTYPE svg PUBLIC "-//W3C//DTD SVG 1.1//EN" "http://www.w3.org/Graphics/SVG/1.1/DTD/svg11.dtd">
<svg version="1.1" id="weather-icon-flurries" xmlns="http://www.w3.org/2000/svg" xmlns:xlink="http://www.w3.org/1999/xlink"
	 x="0px" y="0px" width="612px" height="792px" viewBox="0 0 612 792" enable-background="new 0 0 612 792" xml:space="preserve">
<g id="flurries">
	<path fill="#00FFFF" d="M374.85,482.063c6.694-8.606,4.781-21.037-3.824-27.731c-8.606-6.693-21.038-4.781-27.731,3.825
		c-6.694,8.606-4.781,21.037,3.825,27.731C355.725,492.581,368.156,490.669,374.85,482.063z"/>
	<ellipse fill="#00FFFF" cx="269.012" cy="470.767" rx="20.081" ry="20.081"/>
	<path fill="#00FFFF" d="M374.85,645.581c6.694-8.606,4.781-21.037-3.824-27.731c-8.606-6.693-21.038-4.781-27.731,3.825
		c-6.694,8.606-4.781,21.038,3.825,27.731C355.725,656.1,368.156,655.144,374.85,645.581z"/>
	<ellipse fill="#00FFFF" cx="268.909" cy="634.327" rx="20.081" ry="20.081"/>
	<ellipse fill="#00FFFF" cx="310.598" cy="552.167" rx="20.081" ry="20.081"/>
	<path fill="#00FFFF" d="M223.763,564.3c6.693-8.606,4.781-21.037-3.825-27.731c-8.606-6.693-21.038-4.781-27.731,3.825
		c-6.693,8.606-4.781,21.038,3.825,27.731S217.069,572.906,223.763,564.3z M429.356,564.3c6.693-8.606,4.781-21.037-3.825-27.731
		c-8.606-6.693-21.037-4.781-27.731,3.825c-5.737,8.606-4.781,21.038,3.825,27.731S422.662,572.906,429.356,564.3z"/>
	<path fill="#FFFFFF" d="M486.731,303.244c1.912-7.65,1.912-15.3,1.912-22.95c0-70.763-57.375-128.138-128.138-128.138
		c-43.031,0-83.193,21.994-107.1,57.375c-11.475-4.781-22.95-7.65-34.425-7.65c-48.769,0-88.932,40.163-88.932,88.931v2.869
		c-39.206,13.388-66.938,50.681-66.938,92.756c0,53.55,43.988,97.537,97.538,97.537h47.813c15.3,0,14.344-25.818,0-25.818H160.65
		c-40.163,0-71.719-32.513-71.719-71.719c0-34.425,23.906-64.069,57.375-70.763l12.431-1.912l-1.912-12.432
		c-0.957-3.825-0.957-6.693-0.957-10.519c0-34.425,28.688-63.112,63.113-63.112c11.475,0,22.95,2.869,33.469,9.563l11.475,6.693
		l6.694-12.431c18.169-33.469,52.594-54.506,90.844-54.506c56.418,0,102.318,45.9,102.318,102.319
		c0,10.519-1.912,21.038-4.781,31.556l-5.737,18.169l20.081-0.956h2.869c36.337,0,65.024,29.644,65.024,65.025
		c0,36.337-29.644,65.025-65.024,65.025h-54.507c-16.256,0-19.125,25.818,0,25.818h54.507c49.725,0,90.844-41.118,90.844-90.843
		C566.1,347.231,530.719,308.981,486.731,303.244L486.731,303.244z"/>
</g>
</svg>
