<?xml version="1.0" encoding="utf-8"?>
<!-- Generator: Adobe Illustrator 16.0.0, SVG Export Plug-In . SVG Version: 6.00 Build 0)  -->
<!DOCTYPE svg PUBLIC "-//W3C//DTD SVG 1.1//EN" "http://www.w3.org/Graphics/SVG/1.1/DTD/svg11.dtd">
<svg version="1.1" id="Layer_1" xmlns="http://www.w3.org/2000/svg" xmlns:xlink="http://www.w3.org/1999/xlink" x="0px" y="0px"
	 width="612px" height="792px" viewBox="0 0 612 792" enable-background="new 0 0 612 792" xml:space="preserve">
<path fill="#FCFAFA" d="M584.613,412.695c-34.162-9.155-41.904-89.26-13.881-105.437c9.187-5.324,16.311-12.876,21.017-21.585
	c-7.289-26.579-32.161-64.872-46.194-81.904c-10.257-0.478-20.746,1.866-30.293,7.38c-30.569,17.663-93.765-29.578-84.353-64.737
	c2.943-10.985,1.39-24.309-1.01-32.093c-17.375-8.984-58.521-21.071-89.076-24.064c-6.586,4.792-14.125,16.377-17.063,27.436
	c-9.97,37.179-88.863,42.583-105.785,13.281c-5.649-9.792-16.053-18.911-23.244-21.91c-19.768,5.991-62.724,30.894-80.099,45.27
	c1.2,10.184,1.432,22.014,7.271,32.112c16.91,29.309-28.886,94.479-65.049,84.792c-11.897-3.183-24.382-2.277-34.566,1.916
	C13.898,291.733,1.2,340.736,0,360.504c2.399,5.392,16.702,14.859,28.14,17.919c49.223,13.195,49.609,85.38,13.948,105.968
	c-10.074,5.819-18.703,13.898-22.295,24.088c5.992,19.168,30.068,61.312,45.643,79.284c10.184,1.193,22.014-1.42,32.118-7.264
	c31.849-18.403,95.545,24.871,84.78,65.062c-2.797,10.459-1.249,21.464,0.545,32.253c23.966,10.184,67.32,24.511,91.286,23.91
	c7.785-7.19,12.589-17.209,15.325-27.436c9.425-35.178,87.229-46.402,105.613-14.554c5.134,8.903,12.324,17.355,20.71,22.147
	c25.158-7.19,69.389-31.939,84.382-47.516c0.588-11.377-3.696-20.882-9.021-30.123c-19.872-34.388,26.549-94.604,64.719-84.37
	c10.453,2.791,21.838,1.848,31.428-0.545c8.384-20.973,22.289-58.439,24.676-89.591
	C603.609,420.155,595.653,415.657,584.613,412.695z M468.309,435.933c-23.299,87.01-112.712,138.624-199.708,115.319
	c-86.983-23.317-138.6-112.748-115.294-199.75c23.305-87.002,112.718-138.624,199.702-115.313
	C439.997,259.5,491.619,348.919,468.309,435.933z"/>
</svg>
