<?xml version="1.0" encoding="utf-8"?>
<!-- Generator: Adobe Illustrator 16.0.0, SVG Export Plug-In . SVG Version: 6.00 Build 0)  -->
<!DOCTYPE svg PUBLIC "-//W3C//DTD SVG 1.1//EN" "http://www.w3.org/Graphics/SVG/1.1/DTD/svg11.dtd">
<svg version="1.1" id="weather-icon-mostlysunny" xmlns="http://www.w3.org/2000/svg" xmlns:xlink="http://www.w3.org/1999/xlink"
	 x="0px" y="0px" width="612px" height="792px" viewBox="0 0 612 792" enable-background="new 0 0 612 792" xml:space="preserve">
<g id="mostlysunny">
	<path fill="#FF8C00" d="M339.469,236.306c-6.693,0-12.432-5.737-12.432-12.431v-47.813c0-6.694,5.738-12.431,12.432-12.431
		s12.432,5.737,12.432,12.431v47.813C351.9,230.569,346.162,236.306,339.469,236.306z M183.6,392.175h-47.813
		c-6.694,0-12.431-5.737-12.431-12.431s5.737-12.431,12.431-12.431H183.6c6.694,0,12.431,5.737,12.431,12.431
		S190.294,392.175,183.6,392.175z M542.193,392.175h-47.813c-6.693,0-12.431-5.737-12.431-12.431s5.737-12.431,12.431-12.431h47.813
		c6.694,0,12.432,5.737,12.432,12.431S548.888,392.175,542.193,392.175z M454.219,281.25c-2.869,0-6.693-0.956-8.606-3.825
		c-4.781-4.781-4.781-13.387,0-18.168l33.469-33.469c4.781-4.781,13.388-4.781,18.169,0s4.781,13.387,0,18.168l-33.469,33.469
		C460.912,279.337,457.088,281.25,454.219,281.25z M487.688,537.525c-2.869,0-6.693-0.957-8.606-3.825l-33.469-33.469
		c-4.781-4.781-4.781-13.388,0-18.169s12.432-4.781,18.169,0l33.469,33.469c4.781,4.781,4.781,13.388,0,18.169
		C494.381,535.612,490.557,537.525,487.688,537.525z M229.5,283.163c-2.869,0-6.694-0.957-8.606-3.825l-33.469-33.469
		c-4.781-4.781-4.781-13.387,0-18.168s12.432-4.781,18.169,0l33.469,33.469c4.781,4.781,4.781,13.387,0,18.168
		C236.194,282.206,232.369,283.163,229.5,283.163z"/>
	<path fill="#FFFFFF" d="M319.388,646.537h-191.25c-35.381,0-64.069-28.688-64.069-64.068c0-26.775,16.256-50.682,41.119-60.244
		c0.956-31.556,26.775-57.375,59.288-57.375c6.694,0,13.387,0.957,19.125,3.825c15.3-21.037,40.163-34.425,66.938-34.425
		c45.9,0,83.194,37.294,83.194,83.193c0,3.825,0,6.694-0.956,10.52c26.774,5.737,47.813,29.644,47.813,59.287
		C379.631,619.763,352.856,646.537,319.388,646.537z M163.519,490.669c-18.168,0-33.469,15.3-33.469,33.469
		c0,1.912,0,3.825,0.957,5.737l1.913,12.432l-12.432,2.868c-18.168,3.825-31.556,20.081-31.556,38.25
		c0,21.038,17.212,39.206,39.207,39.206h191.25c19.125,0,34.425-15.3,34.425-34.425s-15.3-34.425-34.425-34.425h-1.913
		l-19.125,0.956l5.737-18.169c1.913-5.737,2.869-11.475,2.869-18.168c0-31.557-25.818-57.375-57.375-57.375
		c-21.037,0-41.119,11.475-50.681,30.6l-6.694,12.432l-11.475-6.694C175.95,492.581,169.256,490.669,163.519,490.669
		L163.519,490.669z"/>
	<path fill="#FF8C00" d="M454.219,379.744c0-63.112-51.638-114.75-114.75-114.75s-114.75,51.638-114.75,114.75
		c0,6.694,0.956,13.388,1.913,19.125c0,7.649,6.694,13.387,13.387,12.431c3.825,0,9.563-2.868,10.519-6.693
		c1.913-4.781,0.956-9.563,0-14.344c-0.957-3.825-0.957-7.65-0.957-10.519c0-49.725,40.163-89.887,89.888-89.887
		c49.725,0,88.932,40.162,88.932,89.887c0,3.825-0.957,7.65-0.957,11.475c-0.956,3.825-0.956,7.65-1.912,11.475
		c-1.912,6.694-4.781,14.344-7.65,20.082c-3.824,6.693-7.649,12.431-12.431,18.168c-4.781,5.738-10.519,10.52-16.257,13.388
		c-6.693,3.825-13.387,6.694-20.081,9.563c-2.868,0.956-5.737,0.956-8.606,2.869c-2.868,0.956-4.781,3.825-5.737,6.693
		c-0.956,1.913-0.956,2.869-0.956,4.781c0,6.694,5.737,12.432,13.388,13.388C415.969,481.106,454.219,433.294,454.219,379.744
		L454.219,379.744z"/>
</g>
</svg>
