<?xml version="1.0" encoding="utf-8"?>
<!-- Generator: Adobe Illustrator 16.0.0, SVG Export Plug-In . SVG Version: 6.00 Build 0)  -->
<!DOCTYPE svg PUBLIC "-//W3C//DTD SVG 1.1//EN" "http://www.w3.org/Graphics/SVG/1.1/DTD/svg11.dtd">
<svg version="1.1" id="weather-icon-mostlycloudy" xmlns="http://www.w3.org/2000/svg" xmlns:xlink="http://www.w3.org/1999/xlink"
	 x="0px" y="0px" width="612px" height="792px" viewBox="0 0 612 792" enable-background="new 0 0 612 792" xml:space="preserve">
<g id="mostlycloudy">
	<path fill="#FF8C00" d="M412.144,222.919c-6.693,0-11.475-5.738-11.475-11.475v-33.469c0-6.694,5.737-11.475,11.475-11.475
		c6.694,0,11.476,5.737,11.476,11.475v32.512C423.619,217.181,418.838,222.919,412.144,222.919z M550.8,329.063h-32.513
		c-6.693,0-11.475-4.781-11.475-11.475s4.781-11.475,11.475-11.475H550.8c6.694,0,11.476,4.781,11.476,11.475
		C563.231,324.281,557.494,329.063,550.8,329.063z M490.557,253.519c-2.869,0-5.738-0.956-8.606-3.825
		c-4.781-4.781-4.781-12.431,0-16.256l22.95-22.95c4.781-4.781,12.431-4.781,16.256,0c4.781,4.781,4.781,12.432,0,16.256
		l-22.95,22.95C497.25,252.563,493.425,253.519,490.557,253.519z M513.506,428.513c-2.868,0-5.737-0.956-8.605-3.825l-22.95-22.95
		c-4.781-4.781-4.781-12.431,0-16.256c4.781-4.781,12.431-4.781,16.256,0l22.95,22.95c4.781,4.781,4.781,12.431,0,16.256
		C520.2,427.557,516.375,428.513,513.506,428.513z M337.557,254.475c-2.869,0-5.738-0.957-8.606-3.825L306,228.656
		c-4.781-4.781-4.781-12.431,0-16.256c4.781-4.781,12.432-4.781,16.256,0l22.95,22.95c4.781,4.781,4.781,12.431,0,16.256
		C343.294,253.519,340.425,254.475,337.557,254.475L337.557,254.475z"/>
	<path fill="#FFFFFF" d="M436.05,642.713H153c-48.769,0-88.931-40.163-88.931-88.932c0-38.25,24.862-72.675,60.244-84.15v-1.912
		c0-44.943,36.337-81.281,81.281-81.281c10.519,0,21.038,1.913,30.6,6.694c21.038-32.513,57.375-51.638,96.582-51.638
		c64.068,0,116.662,52.594,116.662,116.663c0,6.693-0.956,13.388-1.912,20.081c40.162,5.737,71.719,40.163,71.719,82.237
		C518.287,605.419,481.95,642.713,436.05,642.713L436.05,642.713z M204.638,412.256c-30.6,0-55.463,24.863-55.463,55.463
		c0,2.869,0,5.737,0.957,9.563l1.913,12.432l-12.432,1.912c-29.644,5.737-50.681,32.513-50.681,62.156
		c0,35.381,28.688,64.068,64.069,64.068h283.05c31.557,0,57.375-25.818,57.375-57.375c0-31.556-25.818-57.375-57.375-57.375h-2.868
		l-19.125,0.957l5.737-18.169c2.868-8.606,4.781-18.169,4.781-27.731c0-50.682-41.119-90.844-90.844-90.844
		c-33.469,0-65.025,19.125-80.325,48.769l-6.694,12.432l-11.475-6.694C225.675,414.169,215.156,412.256,204.638,412.256
		L204.638,412.256z"/>
	<path fill="#FF8C00" d="M426.487,243c-40.162-7.65-78.412,19.125-85.106,59.288c-0.956,3.825-0.956,6.694-0.956,10.519
		c-0.956,4.781,2.869,9.563,8.606,10.519c10.519,0.956,9.563-9.563,11.475-16.256c5.738-29.644,33.469-48.769,63.113-43.988
		c29.644,5.738,48.769,33.469,43.987,63.113c-0.956,6.694-2.869,13.387-6.694,19.125c-4.781,6.694-12.431,12.431-19.125,17.212
		c-5.737,3.825-2.868,12.431,3.825,13.388c7.65,1.912,14.344-3.825,20.081-9.563c6.694-5.738,12.432-14.344,16.257-22.95
		c1.912-4.781,3.825-9.563,4.781-14.344C493.425,287.944,466.65,249.694,426.487,243z"/>
</g>
</svg>
