<?xml version="1.0" encoding="utf-8"?>
<!-- Generator: Adobe Illustrator 16.0.0, SVG Export Plug-In . SVG Version: 6.00 Build 0)  -->
<!DOCTYPE svg PUBLIC "-//W3C//DTD SVG 1.1//EN" "http://www.w3.org/Graphics/SVG/1.1/DTD/svg11.dtd">
<svg version="1.1" id="weather-icon-cloudy" xmlns="http://www.w3.org/2000/svg" xmlns:xlink="http://www.w3.org/1999/xlink"
	 x="0px" y="0px" width="612px" height="792px" viewBox="0 0 612 792" enable-background="new 0 0 612 792" xml:space="preserve">
<path id="cloudy" fill="#FFFFFF" d="M475.256,570.037H160.65c-53.55,0-97.538-43.987-97.538-97.537
	c0-42.075,27.731-79.369,66.938-92.756v-2.869c0-48.769,40.163-88.931,88.932-88.931c12.431,0,23.906,2.869,35.381,7.65
	c23.906-35.381,63.112-57.375,107.101-57.375c70.762,0,128.137,57.375,128.137,128.138c0,7.65-0.956,15.3-1.912,22.95
	c44.943,5.738,79.369,43.988,79.369,89.887C566.1,528.919,524.981,570.037,475.256,570.037L475.256,570.037z M218.981,313.763
	c-34.425,0-63.113,28.688-63.113,63.112c0,2.869,0,6.694,0.957,10.519l1.912,12.432l-12.431,1.912
	c-33.469,6.694-58.331,36.338-58.331,70.763c0,40.162,32.512,71.719,71.719,71.719H474.3c36.338,0,65.025-29.644,65.025-65.025
	c0-36.337-29.644-65.024-65.025-65.024h-2.868l-19.125,0.956l5.737-18.169c2.868-10.519,4.781-21.037,4.781-31.556
	c0-56.418-45.9-102.319-102.319-102.319c-38.25,0-72.675,21.038-90.843,54.506l-6.694,12.431l-11.475-6.693
	C241.931,316.631,230.456,313.763,218.981,313.763z"/>
</svg>
