<?xml version="1.0" encoding="utf-8"?>
<!-- Generator: Adobe Illustrator 16.0.0, SVG Export Plug-In . SVG Version: 6.00 Build 0)  -->
<!DOCTYPE svg PUBLIC "-//W3C//DTD SVG 1.1//EN" "http://www.w3.org/Graphics/SVG/1.1/DTD/svg11.dtd">
<svg version="1.1" id="weather-icon-rain" xmlns="http://www.w3.org/2000/svg" xmlns:xlink="http://www.w3.org/1999/xlink" x="0px"
	 y="0px" width="612px" height="792px" viewBox="0 0 612 792" enable-background="new 0 0 612 792" xml:space="preserve">
<g id="rain">
	<path fill="#1754FF" d="M243.844,657.057c-1.913,0-2.869,0-4.781-0.957c-6.694-2.868-9.563-10.519-6.694-16.256L321.3,430.425
		c2.869-6.693,10.519-9.563,16.257-6.693c6.693,2.868,9.563,10.519,6.693,16.256l-88.931,209.419
		C253.406,654.188,248.625,657.057,243.844,657.057z M325.125,601.594c-1.912,0-2.869,0-4.781-0.956
		c-6.693-2.869-9.563-10.519-6.693-16.257l63.112-153c2.868-6.693,10.519-9.563,16.256-6.693c6.694,2.869,9.563,10.519,6.694,16.256
		l-63.113,153C334.688,598.725,329.906,601.594,325.125,601.594z M209.419,601.594c-1.913,0-2.869,0-4.781-0.956
		c-6.694-2.869-9.563-10.519-6.694-16.257l63.112-153c2.869-6.693,10.519-9.563,16.256-6.693c6.694,2.869,9.563,10.519,6.694,16.256
		l-63.113,153C218.981,598.725,215.156,601.594,209.419,601.594z"/>
	<path fill="#FFFFFF" d="M486.731,304.2c0.956-7.65,1.912-15.3,1.912-22.95c0-70.763-57.375-128.138-128.138-128.138
		c-43.031,0-83.193,21.994-107.1,57.375c-11.475-4.781-22.95-7.65-35.381-7.65c-48.769,0-88.931,40.163-88.931,88.931v2.869
		c-39.206,13.387-66.938,49.725-66.938,92.756c0,53.55,43.987,97.538,97.538,97.538h47.813c15.3,0,14.344-25.819,0-25.819h-47.813
		c-40.163,0-71.719-32.513-71.719-71.719c0-34.425,23.906-64.068,58.331-70.762l12.431-2.869l-1.912-12.432
		c-0.957-3.825-0.957-6.693-0.957-10.519c0-34.425,28.688-63.112,63.113-63.112c11.475,0,22.95,2.869,33.469,9.563l11.475,6.693
		l6.694-12.431c18.169-33.469,52.594-54.506,90.844-54.506c56.418,0,102.318,45.9,102.318,102.319
		c0,10.519-1.912,21.038-4.781,31.556l-5.737,18.169l20.081-0.956h2.869c36.337,0,65.024,29.644,65.024,65.025
		c0,36.337-29.644,65.025-65.024,65.025h-54.507c-16.256,0-19.125,25.818,0,25.818h54.507c49.725,0,90.844-41.118,90.844-90.843
		C566.1,348.188,531.675,309.938,486.731,304.2L486.731,304.2z"/>
</g>
</svg>
