<?xml version="1.0" encoding="utf-8"?>
<!-- Generator: Adobe Illustrator 16.0.0, SVG Export Plug-In . SVG Version: 6.00 Build 0)  -->
<!DOCTYPE svg PUBLIC "-//W3C//DTD SVG 1.1//EN" "http://www.w3.org/Graphics/SVG/1.1/DTD/svg11.dtd">
<svg version="1.1" id="weather-icon-sleet" xmlns="http://www.w3.org/2000/svg" xmlns:xlink="http://www.w3.org/1999/xlink" x="0px"
	 y="0px" width="612px" height="792px" viewBox="0 0 612 792" enable-background="new 0 0 612 792" xml:space="preserve">
<g id="sleet">
	<path fill="#00FFFF" d="M213.244,638.888l-26.775,8.606l-8.606-25.819l26.775-8.606L213.244,638.888z M216.112,593.943
		c-0.956,0-2.869,0-3.825-0.956c-5.738-1.912-8.606-8.606-6.694-15.3l47.813-117.619c1.913-5.737,8.606-8.605,15.3-6.693
		c5.738,2.869,8.606,8.606,5.738,15.3l-47.813,117.619C224.719,591.075,219.938,593.943,216.112,593.943z M235.333,624.008
		l26.316-8.778l8.779,26.297l-26.297,8.798L235.333,624.008z M273.487,596.813c-1.912,0-2.869,0-4.781-0.956
		c-5.737-1.913-8.606-8.606-5.737-15.3l47.813-117.619c1.912-5.737,8.606-8.606,15.3-5.737c5.737,1.912,8.606,8.606,6.694,15.3
		l-47.813,117.619C282.094,593.943,278.269,596.813,273.487,596.813L273.487,596.813z M293.665,623.855l26.296-8.778l8.798,26.297
		l-26.316,8.797L293.665,623.855z M330.862,596.813c-0.956,0-2.868,0-4.781-0.956c-5.737-1.913-8.606-8.606-5.737-15.3
		l47.813-117.619c1.912-5.737,8.606-8.606,15.3-5.737c5.737,1.912,8.606,8.606,5.737,15.3l-47.813,117.619
		C339.469,593.943,335.644,596.813,330.862,596.813L330.862,596.813z"/>
	<path fill="#FFFFFF" d="M486.731,321.413c0.956-7.65,1.912-15.3,1.912-22.95c0-70.762-57.375-128.137-128.138-128.137
		c-43.031,0-83.193,21.994-107.1,57.375c-11.475-4.781-22.95-7.65-34.425-7.65c-48.769,0-88.932,40.163-88.932,88.932v2.869
		c-39.206,13.387-66.938,49.725-66.938,92.756c0,53.55,43.988,97.537,97.538,97.537h47.813c15.3,0,14.344-25.818,0-25.818H160.65
		c-40.163,0-71.719-32.513-71.719-71.719c0-34.425,23.906-64.069,58.332-70.763l12.431-2.869l-2.869-11.475
		c-0.957-3.825-0.957-7.65-0.957-10.519c0-34.425,28.688-63.113,63.113-63.113c11.475,0,22.95,2.869,33.469,9.563l11.475,6.694
		l6.694-12.431c18.169-33.469,52.594-54.506,90.844-54.506c56.418,0,102.318,45.9,102.318,102.319
		c0,10.519-1.912,21.038-4.781,31.556l-5.737,18.169l20.081-0.957h2.869c36.337,0,65.024,29.644,65.024,65.025
		c0,36.338-29.644,65.025-65.024,65.025h-54.507c-16.256,0-19.125,25.818,0,25.818h54.507c49.725,0,90.844-41.118,90.844-90.844
		C566.1,365.4,530.719,327.15,486.731,321.413L486.731,321.413z"/>
</g>
</svg>
