<?xml version="1.0" encoding="utf-8"?>
<!-- Generator: Adobe Illustrator 16.0.0, SVG Export Plug-In . SVG Version: 6.00 Build 0)  -->
<!DOCTYPE svg PUBLIC "-//W3C//DTD SVG 1.1//EN" "http://www.w3.org/Graphics/SVG/1.1/DTD/svg11.dtd">
<svg version="1.1" id="weather-icon-snow" xmlns="http://www.w3.org/2000/svg" xmlns:xlink="http://www.w3.org/1999/xlink" x="0px"
	 y="0px" width="612px" height="792px" viewBox="0 0 612 792" enable-background="new 0 0 612 792" xml:space="preserve">
<path id="snow" fill="#00FFFF" d="M493.425,396H443.7l21.037-21.038c3.825-3.825,3.825-9.563,0-13.387
	c-3.825-3.825-9.563-3.825-13.388,0L416.925,396h-79.368l56.418-56.419h48.77c4.781,0,9.563-3.825,9.563-9.563
	c0-4.781-3.825-9.563-9.563-9.563H413.1l35.382-35.381c3.825-3.825,3.825-9.563,0-13.388s-9.563-3.825-13.388,0l-35.381,35.381
	v-29.644c0-4.781-3.825-9.563-9.563-9.563c-4.781,0-9.563,3.825-9.563,9.563v48.769l-56.419,56.418v-79.369l34.425-34.425
	c3.825-3.825,3.825-9.563,0-13.388c-3.825-3.825-9.563-3.825-13.388,0l-21.037,21.038v-49.725c0-4.781-3.825-9.563-9.563-9.563
	c-4.781,0-9.563,3.825-9.563,9.563v49.725l-21.038-21.038c-3.825-3.825-9.563-3.825-13.388,0c-3.825,3.825-3.825,9.563,0,13.388
	l34.425,34.425v79.369l-56.419-56.418v-48.769c0-4.781-3.825-9.563-9.563-9.563c-4.781,0-9.563,3.825-9.563,9.563v29.644
	l-35.381-35.381c-3.825-3.825-9.563-3.825-13.387,0c-3.825,3.825-3.825,9.563,0,13.388l35.381,35.381h-29.644
	c-4.781,0-9.563,3.825-9.563,9.563c0,4.781,3.825,9.563,9.563,9.563h48.769L291.656,396h-79.369l-34.425-34.425
	c-3.825-3.825-9.563-3.825-13.387,0c-3.825,3.825-3.825,9.563,0,13.387L185.513,396h-49.725c-4.781,0-9.563,3.825-9.563,9.563
	c0,4.781,3.825,9.563,9.563,9.563h49.725l-21.038,21.037c-3.825,3.825-3.825,9.563,0,13.388c1.913,1.913,3.825,2.869,6.694,2.869
	c1.912,0,4.781-0.956,6.693-2.869l34.425-34.425h79.369l-56.419,56.419h-48.769c-4.781,0-9.563,3.825-9.563,9.563
	c0,4.781,3.825,9.563,9.563,9.563h29.644l-34.425,33.469c-3.825,3.825-3.825,9.563,0,13.388c1.913,1.912,3.825,2.868,6.694,2.868
	c1.913,0,4.781-0.956,6.694-2.868l35.381-35.382v29.644c0,4.781,3.825,9.563,9.563,9.563c4.781,0,9.563-3.824,9.563-9.563v-48.769
	L306,426.6v79.369l-34.425,34.425c-3.825,3.825-3.825,9.563,0,13.388c1.912,1.912,3.825,2.869,6.693,2.869
	c2.869,0,4.781-0.957,6.694-2.869L306,532.744v49.725c0,4.781,3.825,9.563,9.563,9.563c4.781,0,9.563-3.825,9.563-9.563v-49.725
	l21.037,21.037c1.913,1.912,3.825,2.869,6.694,2.869c2.868,0,4.781-0.957,6.693-2.869c3.825-3.825,3.825-9.563,0-13.388
	l-34.425-34.425V426.6l56.419,56.419v48.769c0,4.781,3.825,9.563,9.563,9.563c4.781,0,9.563-3.824,9.563-9.563v-29.644
	l35.381,35.382c1.913,1.912,3.825,2.868,6.694,2.868c2.868,0,4.781-0.956,6.693-2.868c3.825-3.825,3.825-9.563,0-13.388
	l-35.381-35.382H443.7c4.781,0,9.563-3.824,9.563-9.563c0-4.781-3.825-9.563-9.563-9.563h-48.769l-56.419-56.418h79.368
	l34.426,34.425c1.912,1.912,3.824,2.868,6.693,2.868s4.781-0.956,6.693-2.868c3.825-3.825,3.825-9.563,0-13.388l-21.037-21.037
	h49.725c4.781,0,9.563-3.825,9.563-9.563C502.031,399.825,498.206,396,493.425,396L493.425,396z"/>
</svg>
