<?xml version="1.0" encoding="utf-8"?>
<!-- Generator: Adobe Illustrator 16.0.0, SVG Export Plug-In . SVG Version: 6.00 Build 0)  -->
<!DOCTYPE svg PUBLIC "-//W3C//DTD SVG 1.1//EN" "http://www.w3.org/Graphics/SVG/1.1/DTD/svg11.dtd">
<svg version="1.1" id="weather-icon-tstorms" xmlns="http://www.w3.org/2000/svg" xmlns:xlink="http://www.w3.org/1999/xlink"
	 x="0px" y="0px" width="612px" height="792px" viewBox="0 0 612 792" enable-background="new 0 0 612 792" xml:space="preserve">
<g id="tstorms">
	<path fill="#1754FF" d="M188.381,596.813c-1.913,0-3.825,0-5.738-0.956c-6.693-2.869-8.606-10.519-5.737-17.213l26.775-55.462
		c2.869-6.694,10.519-8.606,17.212-5.738c6.694,2.869,8.606,10.52,5.738,17.213l-26.775,55.463
		C196.987,593.943,193.163,596.813,188.381,596.813L188.381,596.813z M125.269,596.813c-1.912,0-3.825,0-5.737-0.956
		c-6.694-2.869-8.606-10.519-5.737-17.213l26.775-55.462c2.869-6.694,10.519-8.606,17.212-5.738
		c6.694,2.869,8.606,10.52,5.737,17.213l-26.775,55.463C134.831,593.943,130.05,596.813,125.269,596.813L125.269,596.813z
		 M447.525,596.813c-1.913,0-3.825,0-5.738-0.956c-6.693-2.869-8.605-10.519-5.737-17.213l26.775-55.462
		c2.868-6.694,10.519-8.606,17.212-5.738c6.694,2.869,8.606,10.52,5.738,17.213L459,590.119
		C457.088,593.943,452.307,596.813,447.525,596.813z M384.412,596.813c-1.912,0-3.824,0-5.737-0.956
		c-6.693-2.869-8.606-10.519-5.737-17.213l26.775-55.462c2.868-6.694,10.519-8.606,17.212-5.738
		c6.694,2.869,8.606,10.52,5.737,17.213l-26.774,55.463C393.975,593.943,389.193,596.813,384.412,596.813L384.412,596.813z"/>
	<path fill="#FF8C00" d="M264.881,657.057c-1.913,0-4.781-0.957-6.694-1.913c-5.737-3.825-7.65-11.475-3.825-17.212l75.544-125.27
		h-79.369l88.931-126.225c3.825-5.737,11.475-6.694,17.213-2.869c5.737,3.825,6.693,12.431,2.868,18.168l-61.2,87.019h75.543
		L275.4,650.362C273.487,654.188,268.706,657.057,264.881,657.057L264.881,657.057z"/>
	<path fill="#FFFFFF" d="M486.731,303.244c0.956-7.65,1.912-15.3,1.912-22.95c0-70.763-57.375-128.138-128.138-128.138
		c-43.031,0-83.193,21.994-107.1,57.375c-10.519-4.781-22.95-7.65-34.425-7.65c-48.769,0-88.932,40.163-88.932,88.931v2.869
		c-39.206,13.388-66.938,49.725-66.938,92.756c0,53.55,43.988,97.537,97.538,97.537h47.813c15.3,0,14.344-24.862,0-24.862H160.65
		c-40.163,0-71.719-32.513-71.719-71.719c0-34.425,23.906-64.068,58.332-70.762l12.431-1.913l-1.913-12.431
		c-0.956-3.825-0.956-7.65-0.956-10.519c0-34.425,28.688-63.112,63.112-63.112c11.475,0,22.95,2.869,33.469,9.563l11.475,6.694
		l6.694-12.431c18.168-33.469,52.594-54.506,90.844-54.506c56.419,0,102.318,45.9,102.318,102.319
		c0,10.519-1.912,21.037-4.781,31.556l-7.649,17.212l20.081-0.956h2.868c36.338,0,65.025,29.644,65.025,65.025
		c0,36.337-29.644,65.025-65.025,65.025H420.75c-16.256,0-19.125,24.862,0,24.862h54.506c49.726,0,90.844-41.118,90.844-90.844
		C566.1,347.231,530.719,308.981,486.731,303.244z"/>
</g>
</svg>
