<?xml version="1.0" encoding="utf-8"?>
<!-- Generator: Adobe Illustrator 16.0.0, SVG Export Plug-In . SVG Version: 6.00 Build 0)  -->
<!DOCTYPE svg PUBLIC "-//W3C//DTD SVG 1.1//EN" "http://www.w3.org/Graphics/SVG/1.1/DTD/svg11.dtd">
<svg version="1.1" id="weather-icon-unknown" xmlns="http://www.w3.org/2000/svg" xmlns:xlink="http://www.w3.org/1999/xlink"
	 x="0px" y="0px" width="612px" height="792px" viewBox="0 0 612 792" enable-background="new 0 0 612 792" xml:space="preserve">
<g id="unknown">
	<path fill="#FFFFFF" d="M475.256,568.125H160.65c-53.55,0-97.538-43.987-97.538-97.537c0-42.075,27.731-79.369,66.938-92.757
		v-2.869c0-48.769,40.163-88.931,88.932-88.931c12.431,0,23.906,2.869,34.425,7.65c23.906-35.381,63.112-57.375,107.1-57.375
		c70.763,0,128.138,57.375,128.138,128.138c0,7.65-0.956,15.3-1.912,22.95c44.943,5.738,79.368,43.987,79.368,89.888
		C566.1,527.006,524.981,568.125,475.256,568.125L475.256,568.125z M218.981,311.85c-34.425,0-63.113,28.688-63.113,63.112
		c0,2.869,0,6.694,0.957,10.519l1.912,12.431l-12.431,1.913c-33.469,6.693-58.331,36.337-58.331,70.763
		c0,40.162,32.512,71.719,71.719,71.719H474.3c36.338,0,65.025-29.645,65.025-65.025c0-36.338-29.644-65.025-65.025-65.025h-2.868
		l-19.125,0.957l5.737-18.169c2.868-10.519,4.781-21.038,4.781-31.557c0-56.418-45.9-102.318-102.319-102.318
		c-38.25,0-72.675,21.037-90.843,54.506l-6.694,11.475l-11.475-6.694C241.931,314.719,230.456,311.85,218.981,311.85L218.981,311.85
		z"/>
	<path fill="#FFFFFF" d="M324.169,467.719c-6.694,0-12.432-5.737-12.432-12.432c0-18.168,0.956-30.6,15.3-45.899l8.606-8.606
		c11.476-11.475,18.169-19.125,17.213-29.644c-0.956-11.475-6.694-18.169-19.125-21.038c-9.563-2.869-21.994,0.956-28.688,8.606
		c-3.825,3.825-5.738,10.519-5.738,17.213c0.957,6.693-4.781,13.387-11.475,13.387c-6.693,0-13.387-4.781-13.387-11.475
		c-0.957-12.431,3.825-26.775,12.431-35.381c13.388-14.344,35.381-21.038,54.506-16.256c21.994,5.737,36.338,22.95,37.294,44.944
		c0.956,21.994-13.388,36.337-24.862,47.813l-7.65,7.649c-7.649,8.606-8.605,14.344-8.605,29.645
		C336.6,461.981,330.862,467.719,324.169,467.719L324.169,467.719z"/>
	<ellipse fill="#FFFFFF" cx="324.169" cy="504.056" rx="13.387" ry="13.387"/>
	<path fill="#FFFFFF" d="M324.169,522.225c-9.563,0-18.169-7.649-18.169-18.168c0-9.563,7.65-18.169,18.169-18.169
		c9.563,0,18.169,8.606,18.169,18.169S334.688,522.225,324.169,522.225z M324.169,495.45c-4.781,0-7.65,3.825-7.65,7.649
		c0,4.781,3.825,7.65,7.65,7.65c4.781,0,7.649-3.825,7.649-7.65C332.775,499.275,328.95,495.45,324.169,495.45z"/>
</g>
</svg>
